<?xml version="1.0" encoding="utf-8"?>
<svg width="63px" height="64px" viewBox="0 0 63 64" version="1.1" xmlns:xlink="http://www.w3.org/1999/xlink" xmlns="http://www.w3.org/2000/svg">
  <desc>Created with Lunacy</desc>
  <g id="icons8_search">
    <path d="M0 24.9398C0 11.1519 11.1519 0 24.9398 0C38.7278 0 49.8797 11.1519 49.8797 24.9398C49.8797 30.6304 47.9427 35.8281 44.745 40.0229L62.533 57.765L56.298 64L38.2808 45.9828C34.4183 48.4355 29.8625 49.8797 24.9398 49.8797C11.1519 49.8797 0 38.7278 0 24.9398ZM44.0115 24.9398C44.0115 14.3782 35.5014 5.8682 24.9398 5.8682C14.3782 5.8682 5.8682 14.3782 5.8682 24.9398C5.8682 35.5014 14.3782 44.0115 24.9398 44.0115C35.5014 44.0115 44.0115 35.5014 44.0115 24.9398Z" id="Shape" fill="#5B5B5B" fill-rule="evenodd" stroke="none" />
  </g>
</svg>